<?xml version="1.0" encoding="utf-8"?>
<!-- Generator: Adobe Illustrator 21.0.0, SVG Export Plug-In . SVG Version: 6.00 Build 0)  -->
<svg version="1.1" id="Layer_1" xmlns="http://www.w3.org/2000/svg" xmlns:xlink="http://www.w3.org/1999/xlink" x="0px" y="0px"
	 viewBox="0 0 500 500" style="enable-background:new 0 0 500 500;" xml:space="preserve">
<style type="text/css">
	.st0{opacity:0.5;fill:#FFFFFF;}
	.st1{fill:url(#SVGID_1_);}
</style>
<g>
	<path class="st0" d="M469,129.6c11,0,20,7.7,20,17.1v144.6c0,8.6-7.5,15.9-17.4,17L85.2,351.5c-0.9,0.1-1.7,0.1-2.6,0.1
		c-9.2,0-17.2-5.4-19.4-13L11.6,159.3c-1.5-5.1-0.2-10.4,3.5-14.5c3.7-4.2,9.3-6.6,15.4-6.7l437.9-8.5
		C468.6,129.6,468.8,129.6,469,129.6L469,129.6L469,129.6z M469,127.7c-0.2,0-0.3,0-0.5,0l-437.9,8.5c-14.2,0.3-24.4,11.8-21,23.6
		L61.1,339c2.5,8.6,11.5,14.5,21.5,14.5c1,0,1.9-0.1,2.9-0.2l386.3-43.2c11.1-1.2,19.3-9.3,19.3-18.9V146.7
		C491.1,136.2,481.2,127.7,469,127.7L469,127.7z"/>
	<linearGradient id="SVGID_1_" gradientUnits="userSpaceOnUse" x1="256.1377" y1="389.2442" x2="277.6355" y2="143.5233">
		<stop  offset="0" style="stop-color:#F78F1E"/>
		<stop  offset="1" style="stop-color:#F2DE0B"/>
	</linearGradient>
	<path class="st1" d="M60,164L41.8,351.7c-1.2,12,10.7,21.9,24.6,20.5l394-38.3c12.6-1.2,21.5-11.3,19.4-22.1l-26.6-138.8
		c-1.7-9-10.6-15.7-21.1-16L82.9,146.5C71.1,146.1,61,153.8,60,164z"/>
</g>
</svg>
